<svg xmlns="http://www.w3.org/2000/svg" width="249.45" height="51.049" viewBox="0 0 249.45 51.049">
  <g id="Logo" transform="translate(17.142 339.46)">
    <path id="Tracé_120" data-name="Tracé 120" d="M63.9-314.032l14.6,14.6-4.512,4.513-14.6-14.6-14.6,14.6-4.512-4.513,14.6-14.6-14.6-14.6,4.512-4.512,14.6,14.6,14.6-14.6,4.512,4.512ZM84.957-339.46H33.908v51.049H84.957Z" fill="lime"/>
    <path id="Tracé_121" data-name="Tracé 121" d="M27.526-294.792H21.145v-15.953H-4.379v15.953H-10.76v-38.287h6.381v15.953H21.145v-15.953h6.381v38.287Zm6.382-44.668h-51.05v51.049h51.05Z"/>
    <path id="Tracé_122" data-name="Tracé 122" d="M232.308-302.765l-5.932-8.812,5.657-8.469h-4.08l-3.6,5.383-3.634-5.383h-4.081l5.658,8.469-5.932,8.812h4.149l3.84-5.726,3.806,5.726Zm-18.036-17.281h-3.737v7.578c0,4.148-1.748,6.617-4.629,6.617a3.411,3.411,0,0,1-3.565-3.669v-10.526H198.6v11.383a5.894,5.894,0,0,0,6.275,6.172,6.542,6.542,0,0,0,5.657-3.154v2.88h3.737Zm-23.229,17.281h3.737V-326.75h-3.737Zm-7.618,0h3.737v-17.281h-3.737Zm1.851-19.985a2.4,2.4,0,0,0,2.469-2.4,2.409,2.409,0,0,0-2.469-2.435,2.373,2.373,0,0,0-2.4,2.435,2.364,2.364,0,0,0,2.4,2.4m-13.457,17c-3.017,0-5.006-2.263-5.006-5.658,0-3.428,1.989-5.657,5.006-5.657s5.006,2.229,5.006,5.657c0,3.4-1.989,5.658-5.006,5.658m-8.5,10.936h3.737v-9.942a6.673,6.673,0,0,0,5.177,2.263c5.178,0,8.332-3.7,8.332-8.915s-3.017-8.914-8.126-8.914a6.532,6.532,0,0,0-5.383,2.468v-2.194h-3.737Zm-9.439-7.679c3.908,0,6.514-2.3,6.514-5.28,0-7.1-9.7-4.56-9.7-7.886,0-1.132,1.029-1.783,2.674-1.783A3.693,3.693,0,0,1,157-314.766l3.086-1.3c-.755-2.537-3.5-4.251-6.755-4.251-3.737,0-6.1,2.023-6.1,4.731,0,6.549,9.635,4.115,9.635,7.852,0,1.235-1.2,2.263-2.983,2.263a4.38,4.38,0,0,1-4.32-3.394l-3.086,1.3a7.427,7.427,0,0,0,7.406,5.074m-17.761-3.257c-3.086,0-5.143-2.332-5.143-5.658s2.057-5.657,5.143-5.657c3.052,0,5.143,2.332,5.143,5.657s-2.091,5.658-5.143,5.658m0,3.257a8.609,8.609,0,0,0,8.915-8.915,8.609,8.609,0,0,0-8.915-8.914,8.589,8.589,0,0,0-8.915,8.914,8.589,8.589,0,0,0,8.915,8.915m-16.163-24.275v9.7H108.638v-9.7h-4.011v24h4.011v-10.766h11.315v10.766H124v-24Z"/>
  </g>
</svg>
